**ABCDEFGHIJKLMNOPQRSTUVWXYZabcdefghijklmnopqrstuvwxyz**************************
**PARASOLID !"#$%&'()*+,-./:;<=>?@[\]^_`{|}~0123456789**************************
**PART1;
MC=unknown;
MC_MODEL=unknown;
MC_ID=unknown;
OS=unknown;
OS_RELEASE=unknown;
FRU=sdl_parasolid_customer_support;
APPL=parasolid_acceptance_tests;
SITE=unknown;
USER=unknown;
FORMAT=text;
GUISE=transmit;
KEY=C:/Users/luo22/OneDrive/Projects/TensegrityExamples/examples/test_prescribed/tetra;
FILE=C:/Users/luo22/OneDrive/Projects/TensegrityExamples/examples/test_prescribed/tetra.xmt_txt;
DATE=unknown;
**PART2;
SCH=SCH_3001239_30100;
USFLD_SIZE=1;
**PART3;
**END_OF_HEADER*****************************************************************
T51 : TRANSMIT FILE created by modeller version 300123923 SCH_3001239_30100_1300
6214 0 12 34 CCCCCCI4 mesh1006 0 I8 polyline1008 0 CCCCCCCDI5 owner1040 0 CCCCCC
I13 boundary_mesh1006 0 I17 boundary_polyline1008 0 CCCA16 index_map_offset0 0 1
 dA9 index_map82 0 A17 node_id_index_map82 0 A20 schema_embedding_map82 0 A5 chi
ld12 0 A14 lowest_node_id0 0 1 dA16 mesh_offset_data206 0 Z1 404 2 3 0 0 0 0 0 0
 1e3 1e-8 0 4 0 1 0 1 1 5 6 7 8 0 0 9 10 11 0 0 0 0 0 0 0 81 255 1 2 350 12 1 13
 0 0 0 14 70 11 CI9 list_type0 0 1 uI10 notransmit0 0 1 lCCCDCCDI12 finger_index
0 0 1 dI12 finger_block1012 0 CZ3 0 4 T1 0 0 4 20 1 15 15 13 255 5 3 0 1 0 16 0
 0 17 0 51 255 6 18 0 18 19 0 0 +-.0866025403784439 -.05 .1414213562373094 1 0 0
 .005 0 -183697019872103e-30 -1 32 255 7 244 0 10 20 0 0 -308171926134973e-31 .1
 .1414213562373094 -1 4440892098500625e-31 0 -4166419153831055e-31 -1 0 .01 .005
 29 255 8 278 0 11 21 0 .0866025404215561 -.0499999999253273 .1364213562373094 1
9 8 CCCCCCCA5 owner12 0 Z9 1 0 1 17 0 22 V0 16 255 10 242 23 ?24 0 25 7 0 0 1 18
 255 11 276 0 26 0 27 8 ?1 17 255 26 0 28 29 30 11 31 32 0 33 -18 27 267 0 34 11
 35 21 ?1 17 34 0 36 37 38 27 39 40 0 41 -18 35 261 0 42 27 43 44 ?1 29 21 269 0
 27 44 8 .003535533917402145 .1020412414137244 .1443081075965014 29 44 263 0 35
 45 21 .0866025404215561 -.0499999999751091 .1414213563403358 29 45 257 0 43 46
 44 .0780670064725111 -.0450720072017326 .1422668661309384 18 43 255 0 47 35 48
 45 ?1 29 46 248 0 48 49 45 -43112249297369e-24 .100000000024891 .14142135634033
58 18 48 246 0 50 43 51 46 ?1 29 49 241 0 51 52 46 267994948871046e-31 .09014401
44034651 .1422668661309382 18 51 239 0 53 48 54 49 ?1 29 52 174 0 54 55 49 -.086
6025403784439 -.05 .1364213562373094 18 54 172 0 56 51 57 52 ?1 29 55 168 0 57 5
8 52 -.0866025403784439 -.0500000000497817 .1414213563403358 18 57 166 0 59 54 6
0 55 ?1 29 58 159 0 60 61 55 -.0901380742566871 -.0479587585184504 .144308107596
5014 18 60 157 0 62 57 63 58 ?1 29 61 30 0 63 64 58 -.0866025403784439 -.0540824
829046387 .1443081075832574 18 63 28 0 65 60 66 61 ?1 29 64 135 0 66 67 61 .0866
02540339285 -.0540824828952739 .1443081075965014 18 66 71 0 29 63 68 64 ?1 29 67
 137 0 68 69 64 -1937263298428735e-33 -.00408248290463863 .2150187857019125 18 6
8 74 0 70 66 71 67 ?1 29 69 138 0 71 72 67 0 0 .2121320343559645 18 71 73 0 73 6
8 74 69 ?1 29 72 139 0 74 75 69 433680868994202e-33 1084202172485504e-34 .206008
3099990065 18 74 76 0 76 71 77 72 ?1 29 75 140 0 77 78 72 -.003535533905932735 .
002041241452319315 .2150187857019125 18 77 75 0 79 74 80 75 ?1 29 78 141 0 80 81
 75 .003535533905932735 .002041241452319315 .2150187857019125 18 80 77 0 82 77 8
3 78 ?1 29 81 228 0 83 84 78 -.0780670064725112 -.0450720072017325 .142266866130
9382 18 83 196 0 85 80 86 81 ?1 29 84 230 0 86 87 81 -.00353553390593273 .102041
2414523192 .1443081075832576 18 86 195 0 37 83 88 84 ?1 29 87 342 0 88 89 84 .09
01380742843766 -.0479587585476807 .1443081075832578 18 88 301 0 90 86 91 87 ?1 2
9 89 344 0 91 0 87 -86224464500583e-24 .1 .1364213562373094 18 91 303 0 92 88 0
 89 ?1 17 92 0 93 53 94 91 95 96 0 97 +15 255 93 243 0 53 98 99 17 53 0 93 94 92
 51 24 10 0 38 -17 94 0 93 92 53 86 38 25 0 100 +17 95 0 101 102 97 86 92 96 0 0
 -16 96 192 103 ?92 104 105 106 0 0 1 17 97 0 101 95 102 91 107 108 0 24 -15 101
 250 0 97 109 0 17 102 0 101 97 95 48 100 110 0 107 +17 107 0 111 112 113 48 97
 108 0 0 +16 108 290 114 ?107 115 32 116 0 0 1 17 24 0 117 118 39 91 53 10 0 113
 +15 117 321 0 118 119 120 17 118 0 117 39 24 27 113 121 0 0 +17 39 0 117 24 118
 51 34 40 0 0 +17 113 0 111 107 112 91 118 121 0 0 -15 111 317 0 107 122 0 17 11
2 0 111 113 107 27 50 115 0 118 +16 121 294 123 ?118 40 124 125 0 0 1 81 1 123 4
03 126 121 0 0 127 128 129 16 40 295 127 ?39 130 121 131 0 0 1 16 124 297 128 ?1
32 121 0 133 0 0 1 31 255 125 335 0 121 133 131 0 +-2155609024612205e-26 .100000
0000373362 .1414213562373094 .5 -.866025403784439 0 0 0 -1 .005 31 133 336 0 124
 0 125 0 +.0866025403784439 -.05 .1414213562373094 -.5 .866025403784439 0 0 0 1
 .005 32 131 334 0 40 125 134 0 +2693991570745845e-32 .1 .1414213562373094 .6532
81482438188 -.0647125256385035 -.754344479484572 -.2705980500730985 .91057433653
6463 -.3124597141037825 .01306562964876376 .005 32 134 333 0 130 131 135 0 +.086
6025403784438 -.05 .1414213562373096 .270598050073099 .59811462243268 -.75434447
9484571 .653281482438188 -.689631953846068 -.3124597141037825 .01306562964876376
 .005 16 130 299 136 ?137 32 40 134 0 0 1 32 135 332 0 32 134 116 0 +.0866025403
784438 -.05 .1414213562373094 .5 .866025403784439 0 .866025403784439 -.5 0 .01 .
005 16 32 298 138 ?31 108 130 135 0 0 1 30 255 116 331 0 108 135 139 0 +-4311225
100341275e-26 .100000000024891 .1414213562373094 0 0 1 30 139 330 0 115 116 140
 0 +-708017808851409e-25 .1000000000089042 .1414213563177274 .707106781186548 .4
08248290463863 .577350269189626 16 115 291 141 ?112 142 108 139 0 0 1 30 140 329
 0 142 139 143 0 +.0866025403507543 -.0500000000159866 .1414213562825262 -.70710
6781186548 -.408248290463863 -.577350269189626 16 142 292 144 ?145 105 115 140 0
 0 1 30 143 328 0 105 140 106 0 +.0866025404215561 -.0499999999751091 .141421356
2373094 0 0 -1 16 105 293 146 ?147 96 142 143 0 0 1 31 106 226 0 96 143 148 0 +6
12323399573677e-32 .1 .1414213562373094 -.5 -.866025403784438 0 0 0 1 .005 31 14
8 225 0 104 106 149 0 +-.0866025404000001 -.0500000000373363 .1414213562373094 .
5 .866025403784438 0 0 0 -1 .005 16 104 191 150 ?151 152 96 148 0 0 1 32 149 224
 0 152 148 153 0 +-.0866025403784439 -.05 .1414213562373094 -.2705980500730985 .
598114622432681 -.754344479484571 -.653281482438189 -.689631953846068 -.31245971
41037825 .01306562964876376 .005 16 152 189 154 ?155 156 104 149 0 0 1 32 153 22
3 0 156 149 157 0 --.086602540378444 -.05 .1414213562373094 .5 -.866025403784439
 0 .866025403784439 .5 0 .01 .005 16 156 190 158 ?159 110 152 153 0 0 1 30 157 2
22 0 110 153 160 0 +2768954212819605e-26 .0999999999840134 .1414213562825262 .70
7106781186547 -.408248290463863 -.577350269189626 16 110 188 161 ?102 162 156 15
7 0 0 1 30 160 221 0 162 157 163 0 +-.0866025403507544 -.0500000000657683 .14142
13563177274 -.707106781186547 .4082482904638635 .577350269189626 16 162 187 164
 ?165 166 110 160 0 0 1 30 163 220 0 166 160 167 0 +-.0866025403784439 -.0500000
000497818 .1414213562373094 0 0 1 16 166 186 168 ?169 170 162 163 0 0 1 31 167 1
32 0 170 163 171 0 +0 0 .2121320343559645 .707106781186548 -.408248290463863 -.5
77350269189626 -.632455532033676 -555111512312578e-31 -.774596669241483 .005 16
 170 67 172 ?173 174 166 167 0 0 1 31 171 131 0 174 167 175 0 +.0866025403507543
 -.0499999999840135 .141421356259918 -.707106781186548 .408248290463863 .5773502
69189626 .632455532033676 555111512312578e-31 .774596669241483 .005 16 174 53 17
6 ?90 177 170 171 0 0 1 32 175 130 0 177 171 178 0 -0 0 .2121320343559645 -1 471
027737605132e-30 0 -2355138688025665e-31 -.577350269189626 -.816496580927726 .00
707106781186547 .005 16 177 68 179 ?180 181 174 175 0 0 1 30 178 129 0 181 175 1
82 0 +0 0 .2121320343559645 -.707106781186548 -.408248290463863 -.57735026918962
6 16 181 63 183 ?184 185 177 178 0 0 1 30 182 128 0 185 178 186 0 +0 0 .21213203
43559645 -388578058618805e-30 -.816496580927726 .577350269189626 16 185 64 187 ?
188 189 181 182 0 0 1 31 186 127 0 189 182 190 0 +0 0 .2121320343559645 99991992
4347898e-31 .816496580927726 -.577350269189626 -1 1224646799147352e-31 0 .005 16
 189 60 191 ?82 192 185 186 0 0 1 31 190 126 0 192 186 193 0 +1224646798755796e-
32 .0999999999680269 .141421356259918 -999919924347898e-31 -.816496580927726 .57
7350269189626 1 -1224646799147352e-31 0 .005 16 192 61 194 ?37 195 189 190 0 0 1
 30 193 125 0 195 190 196 0 +0 0 .2121320343559645 .707106781186547 -.4082482904
63863 -.577350269189626 16 195 58 197 ?198 199 192 193 0 0 1 31 196 124 0 199 19
3 200 0 +0 0 .2121320343559645 -.707106781186548 -.4082482904638625 -.5773502691
89626 -.632455532033676 388578058618805e-30 .774596669241483 .005 16 199 55 201
 ?79 202 195 196 0 0 1 31 200 123 0 202 196 203 0 +-.0866025403507544 -.04999999
99840134 .141421356259918 .707106781186548 .4082482904638625 .577350269189626 .6
32455532033676 -388578058618805e-30 -.774596669241483 .005 16 202 56 204 ?205 20
6 199 200 0 0 1 32 203 122 0 206 200 207 0 -0 0 .2121320343559645 -.5 -.86602540
3784439 0 -.5 .288675134594813 -.816496580927726 .00707106781186548 .005 16 206
 59 208 ?209 210 202 203 0 0 1 32 207 121 0 210 203 211 0 -0 0 .2121320343559645
 -.5 .866025403784439 0 .5 .288675134594813 -.816496580927726 .00707106781186547
 .005 16 210 69 212 ?213 214 206 207 0 0 1 30 211 120 0 214 207 215 0 +.08660254
04215561 -.049999999943136 .1414213563177274 0 .816496580927726 -.57735026918962
6 16 214 62 216 ?217 218 210 211 0 0 1 30 215 119 0 218 211 219 0 +-.08660254037
84439 -.0499999999680269 .1414213562825262 0 -.816496580927726 .577350269189625
 16 218 54 220 ?65 221 214 215 0 0 1 31 219 10 0 221 215 222 0 +-.08660254037844
39 -.05 .1414213562373094 1 0 0 0 -183697019872103e-30 -1 .005 16 221 6 223 ?224
 225 218 219 0 0 1 31 222 16 0 225 219 226 0 +.0866025404215561 -.05 .1414213562
373094 -1 0 0 0 183697019872103e-30 1 .005 16 225 12 227 ?29 228 221 222 0 0 1 3
2 226 33 0 228 222 229 0 +.0866025403784438 -.05 .1414213562373096 .382683432365
09 .533402096794177 .754344479484571 .923879532511287 -.2209423826903945 -.31245
97141037825 .01306562964876376 .005 16 228 31 230 ?231 232 225 226 0 0 1 32 229
 37 0 232 226 20 0 --.0866025403784439 -.05 .1414213562373094 .3826834323650895
 -.533402096794177 -.754344479484572 .923879532511287 .220942382690394 .31245971
41037825 .01306562964876376 .005 16 232 35 233 ?85 25 228 229 0 0 1 32 20 152 0
 25 229 7 0 +995025524307225e-32 .1 .1414213562373094 -.653281482438189 -.064712
5256385029 -.754344479484571 .270598050073099 .910574336536463 -.312459714103782
5 .01306562964876376 .005 16 25 150 234 ?94 10 232 20 0 0 1 81 1 234 370 126 25
 0 0 23 233 235 80 255 1 126 0 236 8001 0 0 0 0 3 5 0 0 0 FFFFTFTFFFFFFF2 81 1 2
3 369 126 10 0 0 237 234 238 81 1 233 371 126 232 0 0 234 230 239 83 255 3 235 1
 1 0 81 1 230 372 126 228 0 0 233 227 240 83 3 239 1 1 0 81 1 227 373 126 225 0
 0 230 223 241 83 3 240 1 1 0 81 1 223 374 126 221 0 0 227 220 242 83 3 241 1 1
 0 81 1 220 375 126 218 0 0 223 216 243 83 3 242 1 1 0 81 1 216 376 126 214 0 0
 220 212 244 83 3 243 1 1 0 81 1 212 377 126 210 0 0 216 208 245 83 3 244 1 1 0
 81 1 208 378 126 206 0 0 212 204 246 83 3 245 1 1 0 81 1 204 379 126 202 0 0 20
8 201 247 83 3 246 1 1 0 81 1 201 380 126 199 0 0 204 197 248 83 3 247 1 1 0 81
 1 197 381 126 195 0 0 201 194 249 83 3 248 1 1 0 81 1 194 382 126 192 0 0 197 1
91 250 83 3 249 1 1 0 81 1 191 383 126 189 0 0 194 187 251 83 3 250 1 1 0 81 1 1
87 384 126 185 0 0 191 183 252 83 3 251 1 1 0 81 1 183 385 126 181 0 0 187 179 2
53 83 3 252 1 1 0 81 1 179 386 126 177 0 0 183 176 254 83 3 253 1 1 0 81 1 176 3
87 126 174 0 0 179 172 255 83 3 254 1 1 0 81 1 172 388 126 170 0 0 176 168 256 8
3 3 255 1 1 0 81 1 168 389 126 166 0 0 172 164 257 83 3 256 1 1 0 81 1 164 390 1
26 162 0 0 168 161 258 83 3 257 1 1 0 81 1 161 391 126 110 0 0 164 158 259 83 3
 258 1 1 0 81 1 158 392 126 156 0 0 161 154 260 83 3 259 1 1 0 81 1 154 393 126
 152 0 0 158 150 261 83 3 260 1 1 0 81 1 150 394 126 104 0 0 154 103 262 83 3 26
1 1 1 0 81 1 103 395 126 96 0 0 150 146 263 83 3 262 1 1 0 81 1 146 396 126 105
 0 0 103 144 264 83 3 263 1 1 0 81 1 144 397 126 142 0 0 146 141 265 83 3 264 1
 1 0 81 1 141 398 126 115 0 0 144 114 266 83 3 265 1 1 0 81 1 114 399 126 108 0
 0 141 138 267 83 3 266 1 1 0 81 1 138 400 126 32 0 0 114 136 268 83 3 267 1 1 0
 81 1 136 401 126 130 0 0 138 127 269 83 3 268 1 1 0 81 1 127 402 126 40 0 0 136
 123 270 83 3 269 1 1 0 83 3 270 1 1 0 81 1 237 368 126 119 0 0 271 23 272 83 3
 238 1 1 0 14 255 119 320 237 ?0 273 117 5 274 +0 0 0 273 22 81 1 271 367 126 27
3 0 0 275 237 276 83 3 272 1 1 0 14 273 318 271 ?119 122 277 5 278 +0 0 119 122
 22 81 1 275 366 126 122 0 0 279 271 280 83 3 276 1 1 0 14 122 316 275 ?273 98 1
11 5 281 +0 0 273 98 22 81 1 279 365 126 98 0 0 282 275 283 83 3 280 1 1 0 14 98
 212 279 ?122 109 93 5 284 +0 0 122 109 22 81 1 282 364 126 109 0 0 285 279 286
 83 3 283 1 1 0 14 109 210 282 ?98 287 101 5 288 +0 0 98 287 22 81 1 285 363 126
 287 0 0 289 282 290 83 3 286 1 1 0 14 287 208 285 ?109 291 292 5 293 +0 0 109 2
91 22 81 1 289 362 126 291 0 0 294 285 295 83 3 290 1 1 0 14 291 105 289 ?287 29
6 297 5 298 +0 0 287 296 22 81 1 294 361 126 296 0 0 299 289 300 83 3 295 1 1 0
 14 296 103 294 ?291 301 302 5 303 +0 0 291 301 22 81 1 299 360 126 301 0 0 304
 294 305 83 3 300 1 1 0 14 301 101 299 ?296 306 307 5 308 +0 0 296 306 22 81 1 3
04 359 126 306 0 0 309 299 310 83 3 305 1 1 0 14 306 98 304 ?301 311 36 5 312 +0
 0 301 311 22 81 1 309 358 126 311 0 0 313 304 314 83 3 310 1 1 0 14 311 96 309
 ?306 315 316 5 317 +0 0 306 315 22 81 1 313 357 126 315 0 0 318 309 319 83 3 31
4 1 1 0 14 315 94 313 ?311 320 321 5 322 +0 0 311 320 22 81 1 318 356 126 320 0
 0 323 313 324 83 3 319 1 1 0 14 320 91 318 ?315 325 326 5 327 +0 0 315 325 22 8
1 1 323 355 126 325 0 0 328 318 329 83 3 324 1 1 0 14 325 89 323 ?320 330 331 5
 332 +0 0 320 330 22 81 1 328 354 126 330 0 0 333 323 334 83 3 329 1 1 0 14 330
 87 328 ?325 18 335 5 336 +0 0 325 18 22 81 1 333 353 126 18 0 0 337 328 338 83
 3 334 1 1 0 14 18 2 333 ?330 339 28 5 6 +0 0 330 339 22 81 1 337 352 126 339 0
 0 340 333 341 83 3 338 1 1 0 14 339 9 337 ?18 16 342 5 343 +0 0 18 16 22 81 1 3
40 351 126 16 0 0 0 337 344 83 3 341 1 1 0 14 16 15 340 ?339 0 345 5 19 +0 0 339
 0 22 83 3 344 1 1 0 15 345 283 0 42 16 0 50 255 19 17 0 16 343 6 0 +.0866025404
215561 -.05 .1414213562373094 1 0 0 0 -183697019872103e-30 -1 13 22 4 0 0 0 0 0
 0 9 16 50 343 11 0 339 327 19 0 +-.0866025403784439 -.05 .1414213562373094 -1 0
 0 0 183697019872103e-30 1 51 327 110 0 320 336 343 0 +0 0 .2121320343559645 -.7
07106781186548 -.4082482904638625 -.577350269189626 .005 -.632455532033676 38857
8058618805e-30 .774596669241483 50 336 111 0 330 332 327 0 +-.0866025403507544 -
.0499999999840134 .141421356259918 -.707106781186548 -.4082482904638625 -.577350
269189626 -.632455532033676 388578058618805e-30 .774596669241483 50 332 112 0 32
5 312 336 0 +0 0 .2121320343559645 .707106781186548 .4082482904638625 .577350269
189626 .632455532033676 -388578058618805e-30 -.774596669241483 51 312 113 0 306
 322 332 0 +0 0 .2121320343559645 999919924347898e-31 .816496580927726 -.5773502
69189626 .005 -1 1224646799147352e-31 0 50 322 114 0 315 317 312 0 +122464679875
5796e-32 .0999999999680269 .141421356259918 999919924347898e-31 .816496580927726
 -.577350269189626 -1 1224646799147352e-31 0 50 317 115 0 311 298 322 0 +0 0 .21
21320343559645 -999919924347898e-31 -.816496580927726 .577350269189626 1 -122464
6799147352e-31 0 51 298 116 0 291 308 317 0 +0 0 .2121320343559645 .707106781186
548 -.408248290463863 -.577350269189626 .005 -.632455532033676 -555111512312578e
-31 -.774596669241483 50 308 117 0 301 303 298 0 +.0866025403507543 -.0499999999
840135 .141421356259918 .707106781186548 -.408248290463863 -.577350269189626 -.6
32455532033676 -555111512312578e-31 -.774596669241483 50 303 118 0 296 284 308 0
 +0 0 .2121320343559645 -.707106781186548 .408248290463863 .577350269189626 .632
455532033676 555111512312578e-31 .774596669241483 51 284 217 0 98 293 303 0 +612
323399573677e-32 .1 .1414213562373094 -.5 -.866025403784438 0 .005 0 0 1 50 293
 218 0 287 288 284 0 +-.0866025404000001 -.0500000000373363 .1414213562373094 -.
5 -.866025403784438 0 0 0 1 50 288 219 0 109 274 293 0 +612323399573677e-32 .1 .
1414213562373094 .5 .866025403784438 0 0 0 -1 51 274 325 0 119 281 288 0 +.08660
25403784439 -.05 .1414213562373094 -.5 .866025403784439 0 .005 0 0 1 50 281 326
 0 122 278 274 0 +-2155609024612205e-26 .1000000000373362 .1414213562373094 -.5
 .866025403784439 0 0 0 1 50 278 327 0 273 0 281 0 +.0866025403784439 -.05 .1414
213562373094 .5 -.866025403784439 0 0 0 -1 17 42 0 345 346 33 35 147 105 0 217 -
17 346 0 345 33 42 66 217 214 0 347 -17 33 0 345 42 346 11 29 225 0 147 -17 147
 0 277 348 145 11 42 105 0 132 +17 217 0 307 349 347 35 346 214 0 145 +15 307 26
5 0 349 301 0 17 349 0 307 347 217 88 145 142 0 137 -17 347 0 307 217 349 66 90
 174 0 0 -17 145 0 277 147 348 35 349 142 0 0 +15 277 319 0 145 273 0 17 348 0 2
77 145 147 88 132 124 0 0 -17 132 0 120 31 137 11 348 124 0 0 +15 120 322 0 132
 119 0 17 31 0 120 137 132 43 26 32 0 0 +17 137 0 120 132 31 88 47 130 0 348 +17
 47 0 297 231 90 43 137 130 0 30 -15 297 259 0 47 291 350 17 231 0 297 90 47 66
 30 228 0 346 +17 90 0 297 47 231 88 347 174 0 349 +17 30 0 28 26 29 43 231 228
 0 31 -15 28 280 0 26 18 351 17 29 0 28 30 26 66 33 225 0 231 +15 351 176 0 352
 18 0 17 352 0 351 353 224 83 159 156 0 155 -17 353 0 351 224 352 63 85 232 0 35
4 -17 224 0 351 352 353 54 354 221 0 159 +17 159 0 99 151 155 54 352 156 0 355 +
17 155 0 99 159 151 83 62 152 0 0 +15 99 213 0 155 98 0 17 151 0 99 155 159 60 3
55 104 0 0 +17 62 0 326 205 85 60 155 152 0 356 -15 326 164 0 62 320 357 17 205
 0 326 85 62 63 356 202 0 353 +17 85 0 326 62 205 83 353 232 0 352 +17 356 0 335
 59 65 60 205 202 0 165 -15 335 170 0 59 330 0 17 59 0 335 65 356 57 165 162 0 3
58 -17 65 0 335 356 59 63 358 218 0 205 +17 165 0 292 355 169 60 59 162 0 151 +1
5 292 209 0 355 287 0 17 355 0 292 169 165 54 151 104 0 0 -17 169 0 292 165 355
 57 56 166 0 0 +17 56 0 342 354 358 54 169 166 0 224 -15 342 179 0 56 339 0 17 3
54 0 342 358 56 63 224 221 0 0 -17 358 0 342 56 354 57 65 218 0 169 -15 357 92 0
 70 320 0 17 70 0 357 79 359 68 180 177 0 360 -17 79 0 357 359 70 77 360 199 0 2
09 +17 359 0 357 70 79 74 209 206 0 180 -17 180 0 350 213 173 74 70 177 0 0 +17
 360 0 331 73 361 68 79 199 0 188 -15 331 90 0 73 325 0 17 73 0 331 361 360 71 1
88 185 0 198 -17 361 0 331 360 73 77 198 195 0 362 -17 188 0 302 363 184 68 73 1
85 0 173 +15 302 104 0 184 296 0 17 363 0 302 184 188 80 173 170 0 0 -17 184 0 3
02 188 363 71 364 181 0 0 +17 173 0 350 180 213 68 363 170 0 0 +15 350 107 0 173
 291 0 17 213 0 350 173 180 80 76 210 0 363 +17 76 0 365 209 82 74 213 210 0 359
 -15 365 99 0 76 306 0 17 209 0 365 82 76 77 359 206 0 361 +17 82 0 365 76 209 8
0 362 189 0 364 +17 362 0 316 198 364 77 82 189 0 0 -17 364 0 316 362 198 80 184
 181 0 213 -15 316 97 0 364 311 0 17 198 0 316 364 362 71 361 195 0 184 +15 321
 274 0 50 315 0 17 50 0 321 100 41 48 112 115 0 102 -17 100 0 321 41 50 86 102 1
10 0 95 -17 41 0 321 50 100 27 37 192 0 112 -17 37 0 36 38 34 86 41 192 0 94 +15
 36 271 0 34 306 365 17 38 0 36 34 37 51 94 25 0 39 -79 255 15 236 SDL/TYSA_COLO
UR81 1 128 404 126 124 0 0 123 0 366 83 3 366 1 1 0 83 3 129 1 1 0 19 17 5 0 1 0
 9 5 S0 74 4 CI16 index_map_offset0 0 1 dCCZ20 15 4 0 0 367 13 2 128 0 0 0 0 0 0
 0 0 0 0 0 0 0 0 0 0 81 1 367 348 368 1 0 13 0 0 369 81 1 13 349 370 1 367 2 0 0
 371 80 1 370 368 372 9000 0 0 0 0 3 5 0 0 0 FFTFFFFFFFFFFF3 84 255 7 371 PART_1
779 13 372 AdamsPartName80 1 368 373 374 9000 0 0 0 0 3 5 0 0 0 FFTFFFFFFFFFFF1
 82 255 1 369 17 79 12 374 UG2/ADAMS_ID80 1 12 370 375 9000 0 0 0 0 3 5 0 0 0 FF
TFFFFFFFFFFF3 84 6 14 CSG_3779 15 375 AdamsObjectName1 0 
