<?xml version="1.0" encoding="UTF-8" standalone="no"?>
<!-- Created with Inkscape (http://www.inkscape.org/) -->

<svg
   width="431.57291mm"
   height="155.47832mm"
   viewBox="0 0 431.57291 155.47832"
   version="1.1"
   id="svg1"
   xml:space="preserve"
   inkscape:version="1.4.2 (f4327f4, 2025-05-13)"
   sodipodi:docname="绘图.svg"
   xmlns:inkscape="http://www.inkscape.org/namespaces/inkscape"
   xmlns:sodipodi="http://sodipodi.sourceforge.net/DTD/sodipodi-0.dtd"
   xmlns="http://www.w3.org/2000/svg"
   xmlns:svg="http://www.w3.org/2000/svg"><sodipodi:namedview
     id="namedview1"
     pagecolor="#ffffff"
     bordercolor="#000000"
     borderopacity="0.25"
     inkscape:showpageshadow="2"
     inkscape:pageopacity="0.0"
     inkscape:pagecheckerboard="0"
     inkscape:deskcolor="#d1d1d1"
     inkscape:document-units="mm"
     inkscape:zoom="0.26101992"
     inkscape:cx="589.99328"
     inkscape:cy="490.38403"
     inkscape:window-width="1440"
     inkscape:window-height="830"
     inkscape:window-x="-6"
     inkscape:window-y="-6"
     inkscape:window-maximized="1"
     inkscape:current-layer="g17" /><defs
     id="defs1" /><g
     inkscape:label="图层 1"
     inkscape:groupmode="layer"
     id="layer1"
     transform="translate(114.71211,-90.216421)"><g
       id="g17"
       transform="translate(22.59754,-11.749229)"><path
         style="fill:#5888c6"
         d="m -0.48914671,254.49512 c -0.19885,-0.2396 -0.26644,-1.95461 -0.2096,-5.31809 0.0839,-4.96445 0.0839,-4.96445 -0.57755999,-5.30283 -0.3638,-0.1861 -2.32833,-1.0186 -4.36562,-1.84999 -9.5458003,-3.89549 -9.7629703,-6.73399 -0.79375,-10.37459 12.784475,-5.18921 14.473994,-6.04966 13.030727,-6.63637 -19.5785373,-7.95891 -19.2484373,-7.77945 -19.2484373,-10.46442 0,-1.53011 0.44454,-1.9288 4.1010403,-3.67803 2.69654,-1.29 5.1698,-2.31302 12.68092,-5.24525 1.590234,-0.62081 2.93277,-1.25705 2.983414,-1.41388 0.125417,-0.38837 -1.006868,-0.89361 -11.026824,-4.92031 -7.8174703,-3.14159 -8.7385503,-3.76422 -8.7385503,-5.90705 0,-2.09818 0.53271,-2.45893 8.8635403,-6.00238 2.03729,-0.86655 5.40463,-2.29982 7.48298,-3.18504 3.873305,-1.64976 4.294679,-2.02778 2.642869,-2.37097 -0.521266,-0.10831 -2.000799,-0.6867 -3.287849,-1.28531 -1.28704,-0.59862 -4.36415,-1.90205 -6.838,-2.89652 -8.6301303,-3.46922 -8.8635403,-3.62359 -8.8635403,-5.86189 0,-2.45619 1.13955,-3.18077 11.4058203,-7.2524 10.004738,-3.96792 9.647991,-3.56724 4.98544,-5.59939 -4.68410001,-2.04155 -4.24170001,-1.07893 -4.15866001,-9.04888 0.0705,-6.76805 0.0705,-6.76805 2.91964001,-6.8432 3.426392,-0.0904 3.088444,-0.64054 3.319956,5.40482 0.204131,5.33036 0.192461,5.31757 6.9610397,7.63445 3.597346,1.23137 4.8219,2.22168 5.100362,4.12472 0.369779,2.5271 -0.480792,3.307 -5.970017,5.47398 -2.2321057,0.88117 -5.7252477,2.36465 -7.7625407,3.29663 -2.03729,0.93198 -4.04094001,1.83665 -4.45255001,2.01038 -1.38364999,0.58402 0.0947,1.33345 12.39005071,6.28114 8.079812,3.25134 8.433961,6.71094 0.98619,9.63387 -1.41553,0.55554 -3.4071277,1.39065 -4.4257727,1.85582 -2.156905,0.98494 -6.481018,2.82752 -8.66510801,3.69235 -2.12893999,0.84299 0.39261,2.2015 12.61405771,6.79596 4.485851,1.68638 5.443758,2.5099 5.443758,4.68005 0,2.60763 -0.05708,2.6404 -16.2169957,9.30808 -3.68073,1.5187 -3.88766,1.67692 -2.70071001,2.06496 0.43656,0.14272 2.52015001,0.97253 4.63021001,1.84402 2.110048,0.8715 5.860517,2.40149 8.3343707,3.39998 5.270572,2.1273 5.958702,2.6674 5.943749,4.66509 -0.01989,2.65684 -1.470526,3.58051 -12.8229157,8.16476 -7.674794,3.09918 -7.616774,3.01372 -3.416764,5.03304 4.331305,2.08245 4.078223,1.49925 4.078223,9.39774 0,5.03851 -0.07776,6.61139 -0.33073,6.69009 -1.058474,0.32926 -5.75349301,0.33304 -6.02586301,0.005 z"
         id="path21" /><path
         style="fill:#84598c"
         d="m 243.62438,254.06327 c -21.47267,-2.45063 -40.98716,-21.56955 -43.69528,-42.80953 -2.50195,-19.62305 6.262,-38.78127 22.87631,-50.00817 3.58453,-2.42221 12.86899,-6.35005 15.03863,-6.36219 0.90068,-0.005 1.51255,-0.3707 1.27189,-0.76011 -0.1,-0.16179 -0.42151,-0.29417 -0.71447,-0.29417 -0.70432,0 -5.8062,-1.14899 -8.96111,-2.01813 -5.28077,-1.45479 -11.61004,-4.17403 -16.37403,-7.03477 -12.35119,-7.41679 -21.78983,-17.34258 -28.23697,-29.69434 -0.95354,-1.82683 -1.84318,-3.32151 -1.97697,-3.32151 -0.1338,0 -0.24327,-0.17859 -0.24327,-0.39687 0,-0.55018 0.76826,-0.49938 1.00049,0.0661 0.47207,1.1496 0.47188,-2.74046 -2.1e-4,-4.27256 -0.76422,-2.48018 -0.44664,-1.98788 1.38741,2.15075 12.14944,27.41584 38.39551,43.75834 68.65293,42.74778 22.68457,-0.75764 41.4181,13.71241 39.80646,30.74709 -1.20031,12.68696 -11.56392,22.17819 -30.67834,28.0959 -10.55453,3.26762 -24.46262,4.03775 -37.92324,2.09992 -5.36262,-0.77202 -5.40407,-0.71014 -3.43307,5.12435 9.7014,28.71769 44.60371,34.16341 67.94142,10.60072 2.30896,-2.33122 4.90031,-3.45824 4.90031,-2.13123 0,0.28641 -2.47844,4.34784 -3.49043,5.71977 -12.33869,16.72734 -27.97239,23.93968 -47.14846,21.75116 z m -14.49206,-49.44854 c 34.91442,-1.87201 57.92642,-21.60247 38.07216,-32.64303 -10.30368,-5.72966 -24.68499,-3.85624 -34.85371,4.54031 -6.5805,5.43368 -11.52915,15.12686 -12.6984,24.87307 -0.48269,4.02347 -1.14124,3.79912 9.47995,3.22965 z m 2.97951,-53.00369 c -0.38942,-0.46922 0.11042,-0.69412 1.1156,-0.50197 2.14491,0.41003 0.23149,-0.467 -2.53031,-1.15979 -1.9595,-0.49153 -5.01975,-1.56811 -7.73906,-2.72255 -2.47385,-1.05024 -4.65853,-1.97614 -4.85484,-2.05756 -0.29891,-0.12397 -0.29931,-0.0558 -0.003,0.41949 0.19494,0.31214 0.54282,0.56753 0.77307,0.56753 0.78527,0 3.77631,1.60442 3.50215,1.87859 -0.34397,0.34396 -5.91985,-2.14796 -6.94904,-3.1056 -0.49616,-0.46167 0.26222,-0.51692 1.08094,-0.0788 2.18265,1.16811 0.34723,-0.34231 -2.72435,-2.24196 -5.82824,-3.60454 -16.98476,-12.97746 -17.90111,-15.03926 -0.0485,-0.10915 -0.20792,-0.19844 -0.35425,-0.19844 -0.14633,0 0.0422,0.36632 0.41892,0.81405 0.37674,0.44773 0.68498,0.91424 0.68498,1.03669 0,0.12246 0.0822,0.43684 0.18266,0.69864 0.24117,0.62848 -0.25736,0.23666 -2.23371,-1.75563 -1.66037,-1.67377 -1.58196,-1.3502 0.22443,0.92604 1.91172,2.40897 8.21572,8.44105 9.59047,9.17679 0.50122,0.26825 0.49878,0.24407 -0.0451,-0.4474 -1.35067,-1.71709 -0.2343,-1.59268 1.7973,0.2003 0.86566,0.76398 2.12292,1.83554 2.7939,2.38125 1.1793,0.95911 1.05078,1.35693 -0.22264,0.6891 -1.07721,-0.56493 0.27854,0.73617 1.64317,1.57693 5.68135,3.50034 8.68983,4.99865 13.38933,6.6683 1.16417,0.41361 2.59292,0.95645 3.175,1.20632 2.42503,1.04098 5.72674,1.72163 5.18502,1.06889 z M 55.823596,203.50677 c -0.267742,-4.96454 0.494115,-8.46402 3.516057,-16.15053 1.470242,-3.73966 1.652169,-4.68756 0.899666,-4.68756 -0.379311,0 -0.737937,-0.72053 -0.527831,-1.06049 0.07444,-0.12044 0.190716,-3.47322 0.258393,-7.4506 0.123051,-7.23161 0.123051,-7.23161 -1.984654,-4.98265 -2.107704,2.24895 -2.107704,2.24895 -2.055211,-0.66146 0.05197,-2.88148 0.05337,-2.8874 0.140678,-0.59532 0.105379,2.7665 0.131172,2.77506 1.877243,0.62299 9.31748,-11.48399 26.391356,-18.42185 41.449714,-16.84281 6.748619,0.70767 20.848099,-3.27609 29.968769,-8.46756 15.09894,-8.5943 26.41338,-21.79369 32.75964,-38.2173 0.33739,-0.87313 0.61925,-1.5 0.62637,-1.39306 0.0338,0.50782 -1.36584,4.85469 -1.67949,5.21608 -0.19585,0.22567 -1.08113,1.89859 -1.96729,3.7176 -0.88616,1.81901 -2.06862,4.0812 -2.62769,5.02709 -1.37143,2.32031 -1.4734,2.61927 -0.83656,2.45273 0.84856,-0.2219 0.61365,0.78198 -0.41667,1.7806 -0.80208,0.7774 -0.92604,0.82685 -0.92604,0.3694 0,-0.29048 0.14089,-0.66904 0.31309,-0.84124 0.1722,-0.1722 0.24834,-0.37785 0.16919,-0.45699 -0.0791,-0.0792 -0.48142,0.30582 -0.89393,0.85548 -6.3905,8.5151 -20.63794,21.5046 -23.58718,21.5046 -0.0857,0 -0.81028,0.43444 -1.61024,0.96542 -0.79996,0.53098 -3.37213,1.72839 -5.71593,2.66091 -6.6755,2.65595 -6.91522,2.7713 -5.38594,2.59177 0.78002,-0.0916 1.25678,-0.0444 1.25678,0.12447 0,0.14961 -0.14883,0.2758 -0.33073,0.28043 -0.1819,0.005 -0.56886,0.1948 -0.8599,0.42262 -2.61886,2.04991 10.91991,-3.76508 15.74271,-6.7616 6.36457,-3.95446 15.7355,-12.28803 19.36056,-17.21735 4.3542,-5.92081 5.60363,-8.03742 4.59503,-7.78428 -0.74793,0.18772 -0.89241,-0.1703 -0.27538,-0.68239 0.29776,-0.24712 0.48722,-0.2544 0.75864,-0.0291 0.4449,0.36924 0.63277,0.16135 1.60597,-1.77708 1.3327,-2.65451 3.09073,-5.18569 3.33132,-4.7964 0.14576,0.23584 0.0524,0.47849 -0.27117,0.70517 -0.27138,0.19007 -0.65997,0.67202 -0.86354,1.071 -10.08155,19.75835 -27.73467,34.28445 -47.8206,39.34978 -3.3943,0.85599 -3.70416,0.95429 -3.70416,1.17516 0,0.12316 0.61019,0.42351 1.35598,0.66745 9.4109,3.07815 20.47256,12.09693 25.81644,21.04864 4.29183,7.18939 7.22341,16.10119 7.22341,21.95867 0,0.77402 -19.73984,1.34119 -20.20987,0.58068 -0.073,-0.11815 -0.32312,-1.39778 -0.55578,-2.84363 -6.76595,-42.0465 -65.867891,-35.32145 -67.57047,7.68865 -0.167578,4.23333 -0.167578,4.23333 -0.349394,0.86205 z m -127.856723,-5.29381 c -2.47495,-8.48487 -3.61479,-19.61124 -2.04055,-19.91849 21.65776,-4.22692 29.25833,-29.66239 13.32562,-44.59449 -12.73263,-11.93299 -41.063243,-11.35627 -49.845803,1.01469 -1.48361,2.08979 -1.66648,2.21177 -1.27631,0.85133 0.35262,-1.22953 0.13001,-1.33897 -1.85405,-0.91147 -5.29938,1.14186 -11.61914,-1.74793 -11.80266,-5.3969 -0.0513,-1.02011 -0.85139,-3.67932 -1.1654,-3.87338 -0.14361,-0.0888 -0.26111,-0.56133 -0.26111,-1.05016 0,-1.94983 -0.52508,-2.17408 -2.02751,-0.86593 -1.85283,1.61326 2.71167,-3.88722 4.95597,-5.97222 7.55781,-7.02136 20.98029,-11.71841 35.039253,-12.26162 37.17512,-1.43635 63.18937,24.49121 56.61107,56.42241 -3.77486,18.3232 -16.60077,31.02403 -36.59785,36.24092 -2.86565,0.74759 -2.93257,0.75449 -3.06067,0.31531 z"
         id="path20" /><path
         style="fill:#e54839"
         d="m 81.670568,256.49216 c -25.066067,-5.41325 -40.770903,-21.43002 -44.88612,-45.77764 -0.885535,-5.23926 -1.125695,-103.99316 -0.255516,-105.06835 0.682103,-0.8428 17.514335,-1.15838 18.74586,-0.35145 0.662823,0.4343 0.662823,0.4343 0.571139,50.61194 -0.103273,56.51979 -0.271757,51.58241 1.984067,58.14245 2.725133,7.92482 4.247017,10.26864 9.670034,14.89264 6.676031,5.69239 10.727159,7.44738 19.922062,8.63045 2.148984,0.2765 2.053682,-0.18382 2.053682,9.9194 0,11.19912 0.374662,10.76708 -7.805208,9.00056 z m 14.259624,-0.0498 c -0.105268,-0.17033 -0.245868,-4.36728 -0.312444,-9.32656 -0.140967,-10.50078 -0.428882,-9.5409 3.118445,-10.39652 12.678367,-3.05803 23.460067,-15.70665 25.148677,-29.50334 0.47389,-3.87185 -0.58132,-3.52458 10.46164,-3.44297 11.14985,0.0824 10.29661,-0.18002 10.06412,3.09529 -1.40501,19.79387 -14.53116,37.75573 -33.80624,46.26053 -4.44737,1.96232 -14.154594,4.15431 -14.674198,3.31357 z m -224.150252,-2.0538 c -7.19247,-0.12636 -8.58233,-0.21281 -8.79334,-0.54696 -0.48612,-0.76977 -0.33175,-73.44335 0.15704,-73.93214 0.36778,-0.36778 2.076,-0.41578 14.79777,-0.41578 15.24086,0 15.21354,-0.002 15.21354,1.1906 0,0.96089 1.12779,10.49836 1.63863,13.85751 0.7418,4.87787 1.14303,4.53106 -5.24218,4.53106 -6.48173,0 -5.65687,-4.02702 -5.65687,27.61729 0,21.02364 -0.0711,26.87793 -0.33073,27.21428 -0.46241,0.59918 -1.8922,0.65793 -11.78386,0.48414 z m -7.79541,-80.90523 c -1.30681,-0.19795 -1.30979,-0.23606 -1.17268,-14.9819 0.15169,-16.31446 0.47668,-19.15112 2.84247,-24.81038 0.44941,-1.07506 1.08109,-2.73227 1.40372,-3.6827 1.2835,-3.78096 5.40162,-9.04544 5.73695,-7.33394 0.007,0.0364 0.1712,1.09718 0.3646,2.35732 1.10912,7.22672 4.00235,9.74085 11.46254,9.96061 4.18807,0.12336 4.08277,-0.0486 2.1851,3.56763 -2.59872,4.95209 -2.72325,5.88046 -2.84631,21.21908 -0.0696,8.67307 -0.20151,13.34093 -0.38323,13.55989 -0.26645,0.32106 -17.58439,0.44868 -19.59316,0.14439 z M -1.2544167,132.24224 c -6.10446,-1.64126 -10.7283003,-9.48495 -9.1541203,-15.52865 4.0447403,-15.52882 26.575703,-12.8733 26.442622,3.11655 -0.07284,8.75136 -8.4730927,14.78224 -17.2885017,12.4121 z"
         id="path19" /><path
         style="fill:#704d73"
         d="m 55.767024,192.59056 c 0.02272,-3.92906 0.05688,-10.29891 0.07591,-14.15521 0.03459,-7.01146 0.03459,-7.01146 2.142297,-9.26041 2.107705,-2.24896 2.107705,-2.24896 1.984654,4.98265 -0.06768,3.97738 -0.183954,7.33016 -0.258393,7.4506 -0.210106,0.33996 0.14852,1.06049 0.527831,1.06049 0.759414,0 0.55589,0.96386 -1.093746,5.17983 -1.634936,4.17839 -2.2371,6.17658 -3.063578,10.16601 -0.329275,1.58941 -0.353153,1.17822 -0.314971,-5.42396 z M 229.70494,151.46285 c -0.94589,-0.25651 -2.19605,-0.67083 -2.77813,-0.9207 -0.58208,-0.24987 -2.01083,-0.79271 -3.175,-1.20632 -4.6995,-1.66965 -7.70798,-3.16796 -13.38933,-6.6683 -1.36463,-0.84075 -2.72038,-2.14186 -1.64317,-1.57693 1.27342,0.66783 1.40194,0.27002 0.22264,-0.6891 -0.67098,-0.54571 -1.92824,-1.61727 -2.7939,-2.38125 -2.0316,-1.79298 -3.14797,-1.91739 -1.7973,-0.20029 0.5439,0.69146 0.54634,0.71564 0.0451,0.44739 -1.37475,-0.73574 -7.67875,-6.76782 -9.59047,-9.17679 -1.80639,-2.27624 -1.8848,-2.59981 -0.22443,-0.92604 1.97635,1.99229 2.47488,2.38411 2.23371,1.75563 -0.10047,-0.2618 -0.18266,-0.57618 -0.18266,-0.69864 0,-0.12245 -0.30824,-0.58896 -0.68498,-1.03669 -0.37674,-0.44773 -0.56525,-0.81405 -0.41892,-0.81405 0.14633,0 0.30574,0.0893 0.35425,0.19844 0.91635,2.0618 12.07287,11.43472 17.90111,15.03926 3.07158,1.89965 4.907,3.41007 2.72435,2.24196 -0.81872,-0.43817 -1.5771,-0.38292 -1.08094,0.0788 1.02919,0.95764 6.60507,3.44956 6.94904,3.1056 0.27416,-0.27417 -2.71688,-1.87859 -3.50215,-1.87859 -0.23025,0 -0.57813,-0.25539 -0.77307,-0.56753 -0.2968,-0.47526 -0.2964,-0.54346 0.003,-0.41949 0.19631,0.0814 2.38099,1.00732 4.85484,2.05756 2.71931,1.15444 5.77956,2.23102 7.73906,2.72255 2.7618,0.69279 4.67522,1.56982 2.53031,1.15979 -1.00518,-0.19215 -1.50502,0.0328 -1.1156,0.50197 0.40782,0.4914 -0.18251,0.45506 -2.40689,-0.14818 z M 117.6539,150.29139 c 0.29104,-0.22782 0.678,-0.418 0.8599,-0.42262 0.1819,-0.005 0.33073,-0.13082 0.33073,-0.28043 0,-0.16883 -0.47676,-0.21605 -1.25678,-0.12447 -1.52928,0.17953 -1.28956,0.0642 5.38594,-2.59177 2.3438,-0.93252 4.91597,-2.12993 5.71593,-2.66091 0.79996,-0.53098 1.52457,-0.96542 1.61024,-0.96542 2.94924,0 17.19668,-12.9895 23.58718,-21.5046 0.41251,-0.54966 0.81478,-0.93463 0.89393,-0.85548 0.0791,0.0791 0.003,0.28479 -0.16919,0.45699 -0.1722,0.1722 -0.31309,0.55076 -0.31309,0.84124 0,0.45745 0.12396,0.408 0.92604,-0.3694 1.03032,-0.99862 1.26523,-2.0025 0.41667,-1.7806 -0.63684,0.16654 -0.53487,-0.13242 0.83656,-2.45273 0.55907,-0.94589 1.74549,-3.20808 2.63648,-5.02709 0.89099,-1.81901 1.82768,-3.60495 2.08153,-3.96875 0.25386,-0.3638 0.61562,-1.3163 0.80393,-2.11666 0.42722,-1.81583 0.68425,-1.06447 0.73415,2.14615 0.0309,1.98555 0.0132,2.04134 -1.25548,3.96875 -0.70774,1.07519 -1.61483,2.60973 -2.01575,3.4101 -0.99469,1.98569 -1.18049,2.19382 -1.62736,1.82294 -0.27142,-0.22526 -0.46088,-0.21798 -0.75864,0.0291 -0.61703,0.51209 -0.47255,0.87011 0.27538,0.68239 1.0086,-0.25314 -0.24083,1.86347 -4.59503,7.78428 -3.62506,4.92933 -12.99599,13.26289 -19.36056,17.21735 -4.8228,2.99653 -18.36157,8.81152 -15.74271,6.7616 z"
         id="path18" /><path
         style="fill:#448e4d"
         d="m -34.256167,254.35264 c -25.74599,-1.64309 -46.92575,-15.16445 -57.3717,-36.62666 -5.16533,-10.61267 -9.189863,-27.0978 -8.816953,-36.11563 0.0757,-1.83066 18.809973,-3.55963 19.387363,-1.78924 0.0599,0.18372 0.23826,2.12387 0.39631,4.31145 0.67365,9.32404 4.25059,21.26396 8.36083,27.90865 8.24437,13.328 21.06969,20.93727 38.04885,22.57441 2.68185,0.25858 4.00464,0.49328 4.15544,0.73728 0.97154,1.57198 0.15838,19.71764 -0.86236,19.24366 -0.0459,-0.0213 -1.52995,-0.1311 -3.29778,-0.24392 z m 198.793377,0.0822 c -0.69897,-0.0518 -1.32333,-0.23627 -1.38747,-0.40988 -0.0641,-0.17362 -0.18228,-33.41504 -0.26254,-73.86983 -0.0803,-40.45479 -0.15094,-74.34618 -0.15706,-75.31419 -0.0197,-3.11741 -0.88679,-2.87018 10.0663,-2.87018 10.93043,0 10.03399,-0.25957 10.08886,2.92126 0.15084,8.74411 -0.0393,148.88047 -0.20233,149.11936 -0.20245,0.29665 -15.1509,0.64549 -18.14576,0.42345 z"
         id="path17" /></g></g></svg>
